<svg width="160" height="159" viewBox="0 0 160 159" fill="none" xmlns="http://www.w3.org/2000/svg">
    <path d="M117.731 23.0677V50.5868V23.0677Z" fill="#7F7F7F"/>
    <path d="M117.731 23.0677V50.5868" stroke="white" stroke-width="4.53543" stroke-linecap="round" stroke-linejoin="round"/>
    <path d="M46.1064 23.0677V50.5868V23.0677Z" fill="#7F7F7F"/>
    <path d="M46.1064 23.0677V50.5868" stroke="white" stroke-width="4.53543" stroke-linecap="round" stroke-linejoin="round"/>
    <path d="M103.375 33.469C103.375 34.6777 101.887 37.834 96.9378 37.834C93.7417 37.834 89.8581 37.1178 89.8581 32.8342C89.8581 29.312 91.8573 26.1945 95.9379 26.1945C102.498 26.1945 103.378 33.1942 103.378 33.1942C103.378 41.3637 98.838 47.8337 89.2581 47.8337C82.8922 47.8337 78.5464 42.9924 78.5464 42.9924L76.8211 31.7073L78.5112 42.9857C78.5112 51.5988 69.1403 53.1535 66.9389 53.1535C59.6159 53.1535 56.7393 50.3006 56.7393 46.7537C56.7393 43.0119 58.2086 41.6339 59.4192 41.6339" stroke="white" stroke-width="4.53543" stroke-linecap="round" stroke-linejoin="round"/>
    <path d="M91.6406 16.7883C92.1675 16.7883 92.5947 17.2156 92.5947 17.7424C92.5947 18.2693 92.1675 18.6965 91.6406 18.6965C91.1138 18.6965 90.6865 18.2693 90.6865 17.7424C90.6865 17.2156 91.1138 16.7883 91.6406 16.7883Z" fill="white" stroke="white" stroke-width="3.77953"/>
    <path d="M101.297 16.7883C101.824 16.7883 102.251 17.2156 102.251 17.7424C102.251 18.2693 101.824 18.6965 101.297 18.6965C100.77 18.6965 100.343 18.2693 100.343 17.7424C100.343 17.2156 100.77 16.7883 101.297 16.7883Z" fill="white" stroke="white" stroke-width="3.77953"/>
    <path d="M48.0437 2.86047C41.0607 2.86047 41.746 7.08102 41.746 7.08102C41.746 11.8779 49.7009 11.6993 49.7009 11.6993L41.967 15.6547" stroke="white" stroke-width="4.15748" stroke-linecap="round" stroke-linejoin="round"/>
    <path d="M2.29688 156.274L16.2969 150.461L26.4219 153.461L157.049 85.9897L156.695 74.4993L2.42202 137.836L2.29688 156.274Z" stroke="white" stroke-width="4.15748" stroke-linecap="round" stroke-linejoin="round"/>
    <path d="M56.9219 114.586L2.67188 86.2112V74.2112L78.1719 105.586" stroke="white" stroke-width="4.15748" stroke-linecap="round" stroke-linejoin="round"/>
    <path d="M81.3594 126.399L108.435 140.614" stroke="white" stroke-width="4.15748" stroke-linecap="round" stroke-linejoin="round"/>
    <path d="M118.069 146.094L133.272 153.43L142.73 150.425L156.859 156.586L157.172 137.586L103.109 113.93" stroke="white" stroke-width="4.15748" stroke-linecap="round" stroke-linejoin="round"/>
    <path d="M146.265 78.3883V69.0192L79.6202 94.475L13.7959 68.7692V78.4919" stroke="white" stroke-width="4.15748" stroke-linecap="round" stroke-linejoin="round"/>
    <path d="M79.7969 94.0862V80.1487C79.7969 73.0793 95.4899 65.8547 101.303 64.297C110.635 61.7965 128.07 64.0781 133.172 62.7112C135.957 61.9648 137.547 60.4612 137.547 60.4612V71.5862" stroke="white" stroke-width="3.77953" stroke-linecap="round" stroke-linejoin="round"/>
    <path d="M80.3276 85.6362L116.39 71.2289" stroke="white" stroke-width="4.15748" stroke-linecap="round" stroke-linejoin="round"/>
    <path d="M79.2344 85.7737L43.1094 71.2112" stroke="white" stroke-width="4.15748" stroke-linecap="round" stroke-linejoin="round"/>
    <path d="M78.6094 77.2737L56.2969 65.0237" stroke="white" stroke-width="4.15748" stroke-linecap="round" stroke-linejoin="round"/>
    <path d="M47.1719 62.1487C41.0435 60.5066 32.9118 64.4212 26.2969 62.6487C24.5865 62.1904 21.6719 60.7112 21.6719 60.7112V71.2112" stroke="white" stroke-width="4.15748" stroke-linecap="round" stroke-linejoin="round"/>
</svg>
    