<svg width="377" height="138" viewBox="0 0 377 138" fill="none" xmlns="http://www.w3.org/2000/svg">
<g clip-path="url(#clip0_21_84)">
<path d="M-24 58C29.5 38 125 24.5 194 74.5C249.2 114.5 356.667 90.1667 386.5 82.5" stroke="#E1F0E8" stroke-width="7"/>
<path d="M119.5 43.5C64.6998 47.5 66.3332 120.833 73.9998 157" stroke="#E1F0E8" stroke-width="7"/>
<path d="M71.5 102.5C105.1 121.7 150.167 82.8333 168.5 61" stroke="#E1F0E8" stroke-width="7"/>
<path d="M139.5 87.5C175.9 100.7 170.333 134.667 163 150" stroke="#E1F0E8" stroke-width="7"/>
<path d="M78.5 70.5C57.3 65.7 2.16667 87.6667 -10 115" stroke="#E1F0E8" stroke-width="7"/>
<path d="M204 80.5C184.4 80.5 194.834 120.833 202.5 141" stroke="#E1F0E8" stroke-width="7"/>
<path d="M199 124.5C230.2 123.7 244.667 104.167 248 94.5" stroke="#E1F0E8" stroke-width="7"/>
<path d="M237.5 111C285.1 108.6 333 131.667 351 143.5" stroke="#E1F0E8" stroke-width="7"/>
</g>
<defs>
<clipPath id="clip0_21_84">
<rect width="377" height="138" fill="white"/>
</clipPath>
</defs>
</svg>
