<svg width="175" height="162" viewBox="0 0 175 162" fill="none" xmlns="http://www.w3.org/2000/svg">
    <path d="M11.8262 39.6073L93.2266 77.6413L174.971 39.248L92.1294 0L11.8262 39.6073Z" fill="white"/>
    <path d="M42.1792 62.2284L42.6641 97.9921C42.6641 97.9921 59.0037 117.98 93.6263 116.82C135.951 116.82 144.248 95.427 144.248 95.427L143.905 61.4974C143.905 61.4974 100.932 84.3326 93.158 84.3326C85.965 84.3326 42.1792 62.2284 42.1792 62.2284Z" fill="white"/>
    <path d="M24.1643 103.581C24.1643 103.581 29.084 124.309 29.084 138.271C29.084 156.262 17.6998 161.3 17.6998 161.3C16.8769 151.586 0 147.263 0 147.263C7.0634 142.201 9.69904 139.937 13.4022 132.481C17.6884 125.076 21.4912 103.26 21.4912 103.26L24.1643 103.581Z" fill="white"/>
    <path d="M23.208 44.2697L20.8784 86.3974L26.201 86.6876L24.5811 44.3284L23.208 44.2697Z" fill="white"/>
    <path d="M23.3471 107.809C29.975 107.809 35.348 102.449 35.348 95.8375C35.348 89.226 29.975 83.8663 23.3471 83.8663C16.7192 83.8663 11.3462 89.226 11.3462 95.8375C11.3462 102.449 16.7192 107.809 23.3471 107.809Z" fill="white"/>
</svg>
    