<svg width="42" height="41" viewBox="0 0 42 41" fill="none" xmlns="http://www.w3.org/2000/svg">
<g clip-path="url(#clip0_23_138)">
<mask id="mask0_23_138" style="mask-type:luminance" maskUnits="userSpaceOnUse" x="0" y="0" width="42" height="41">
<path d="M41.7922 0H0.208008V41H41.7922V0Z" fill="white"/>
</mask>
<g mask="url(#mask0_23_138)">
<path fill-rule="evenodd" clip-rule="evenodd" d="M3.13114 2.88207C0.208008 5.76415 0.208008 10.4028 0.208008 19.68V21.32C0.208008 30.5972 0.208008 35.2358 3.13114 38.1179C6.05428 41 10.759 41 20.1684 41H21.8318C31.2412 41 35.9459 41 38.869 38.1179C41.7922 35.2358 41.7922 30.5972 41.7922 21.32V19.68C41.7922 10.4028 41.7922 5.76415 38.869 2.88207C35.9459 0 31.2412 0 21.8318 0H20.1684C10.759 0 6.05428 0 3.13114 2.88207ZM7.22542 12.4709C7.45064 23.1309 12.8565 29.5371 22.3343 29.5371H22.8715V23.4384C26.3542 23.78 28.9877 26.2913 30.0446 29.5371H34.9655C33.614 24.6855 30.0619 22.0034 27.8441 20.9784C30.0619 19.7142 33.1807 16.6392 33.9257 12.4709H29.4553C28.485 15.8534 25.6091 18.9284 22.8715 19.2188V12.4709H18.401V24.2925C15.6288 23.6092 12.1289 20.2951 11.9729 12.4709H7.22542Z" fill="white"/>
</g>
</g>
<defs>
<clipPath id="clip0_23_138">
<rect width="42" height="41" fill="white"/>
</clipPath>
</defs>
</svg>
